Coordinates
version=1
nRows=24
nColumns=24
inDegrees=yes

Units are S.I. units (second, meters, Newtons, ...)
Angles are in degrees.

endheader
time	pelvis_tilt	pelvis_list	pelvis_rotation	pelvis_tx	pelvis_ty	pelvis_tz	hip_flexion_r	hip_adduction_r	hip_rotation_r	knee_angle_r	ankle_angle_r	subtalar_angle_r	mtp_angle_r	hip_flexion_l	hip_adduction_l	hip_rotation_l	knee_angle_l	ankle_angle_l	subtalar_angle_l	mtp_angle_l	lumbar_extension	lumbar_bending	lumbar_rotation
      0.87050000	      2.99922848	     -5.65908366	      9.44386541	     -0.51658350	      1.03042159	      0.33179407	      6.89647153	     11.28078492	     -4.04001522	    -14.25239033	      2.77449259	    -15.74936308	      4.85388453	     10.85210053	     -8.69510394	      0.68815106	    -68.11002004	     -7.57592795	     -2.88898484	      2.57412407	     -3.68607703	      3.55851326	     -4.12397773
      0.87466667	      2.98998726	     -5.49876490	      9.45896287	     -0.51173766	      1.03117616	      0.33191537	      6.44135800	     11.17243353	     -4.00897790	    -13.97867880	      2.86811996	    -15.69604521	      4.85752622	     11.45453406	     -8.49524377	      0.68093732	    -68.10158785	     -6.66380257	     -3.22607780	      2.55506989	     -3.74096780	      3.36679030	     -4.07116501
      0.87883333	      2.99113921	     -5.35871571	      9.46332941	     -0.50692486	      1.03188859	      0.33208031	      5.98152368	     11.09108569	     -3.96566572	    -13.70809029	      2.99017758	    -15.59391465	      4.86533455	     12.04432644	     -8.32925092	      0.66087663	    -68.06232454	     -5.67218218	     -3.33742065	      2.45752861	     -3.83384132	      3.18584919	     -3.93321920
      0.88300000	      2.96026453	     -5.19953616	      9.45158245	     -0.50209028	      1.03257373	      0.33222260	      5.54811833	     10.98111135	     -3.91765484	    -13.43174202	      3.07954143	    -15.53373602	      4.86847302	     12.64152971	     -8.12262637	      0.62481225	    -67.94354316	     -4.84949804	     -3.67912527	      2.42446848	     -3.86540141	      2.99669584	     -3.87663588
      0.88716667	      2.95849997	     -5.03937665	      9.41885661	     -0.49731395	      1.03326822	      0.33241768	      5.09443110	     10.87832168	     -3.84326960	    -13.17735570	      3.19784171	    -15.44551835	      4.87337983	     13.19509915	     -7.92818448	      0.56536358	    -67.78104515	     -3.98520964	     -3.86930341	      2.31671594	     -3.98254585	      2.79308493	     -3.72566539
      0.89133333	      2.95025713	     -4.88468124	      9.38857265	     -0.49246559	      1.03395859	      0.33256876	      4.62505299	     10.77760089	     -3.77741779	    -12.87704411	      3.28355607	    -15.37270249	      4.87548553	     13.73251305	     -7.72983315	      0.50803337	    -67.54273200	     -3.25391770	     -4.18649344	      2.27625344	     -4.01224167	      2.61560668	     -3.66018568
      0.89550000	      2.97655117	     -4.71583960	      9.32395609	     -0.48768567	      1.03467892	      0.33278204	      4.12717725	     10.67126596	     -3.65791345	    -12.60070465	      3.40928109	    -15.27832945	      4.84093905	     14.21326194	     -7.52952115	      0.41064160	    -67.26050980	     -2.43322221	     -4.36042809	     -0.59298255	     -4.14650152	      2.41384316	     -3.40243581
      0.89966667	      2.97286398	     -4.53237332	      9.25631562	     -0.48290461	      1.03534553	      0.33297892	      3.66261504	     10.53957462	     -3.55813385	    -12.32847078	      3.49262996	    -15.20600104	      4.84188430	     14.70549046	     -7.29771497	      0.31977120	    -66.90518331	     -1.78247919	     -4.65181383	     -0.58851889	     -4.24880224	      2.19183063	     -3.32604340
      0.90383333	      3.01814886	     -4.34981272	      9.17379917	     -0.47810138	      1.03607515	      0.33320410	      3.13101838	     10.41938260	     -3.43138440	    -12.02974693	      3.59694512	    -15.11913016	      4.84056543	     15.11841918	     -7.08465504	      0.20451018	    -66.48229115	     -1.17447845	     -4.91237338	     -0.59910501	     -4.38443704	      1.97516417	     -3.15778657
      0.90800000	      3.01513200	     -4.17658210	      9.07398795	     -0.47334082	      1.03668283	      0.33343568	      2.67203889	     10.29703364	     -3.29765433	    -11.76672841	      3.68809052	    -15.05143288	      4.83841371	     15.57638529	     -6.86820852	      0.08581712	    -66.02001853	     -0.59134127	     -5.18370718	     -0.60837220	     -4.48726850	      1.77558738	     -3.03453281
      0.91216667	      3.05856673	     -3.99545326	      8.96521466	     -0.46856659	      1.03735583	      0.33368654	      2.14862551	     10.17492444	     -3.14591768	    -11.47677259	      3.78518379	    -14.97243241	      4.83250141	     15.95771844	     -6.65568262	     -0.04642132	    -65.48856117	     -0.05877022	     -5.43535040	     -0.62968497	     -4.63014021	      1.56423369	     -2.85113600
      0.91633333	      3.09193255	     -3.81553781	      8.84238728	     -0.46380464	      1.03798272	      0.33394746	      1.64099685	     10.04868977	     -2.98650799	    -11.19440720	      3.87941766	    -14.89719296	      4.82337233	     16.33214273	     -6.44353054	     -0.18919309	    -64.90298140	      0.44704293	     -5.68020772	     -0.65682775	     -4.75774976	      1.35061032	     -2.66888453
      0.92050000	      3.11310242	     -3.63342246	      8.70988351	     -0.45903393	      1.03856663	      0.33422713	      1.14802003	      9.91678800	     -2.82580409	    -10.91684496	      3.97556158	    -14.81933685	      4.81002689	     16.70041212	     -6.22916831	     -0.34110968	    -64.26175764	      0.90777575	     -5.91720199	     -0.69182943	     -4.86904569	      1.13233262	     -2.47529908
      0.92466667	      3.14070480	     -3.45134711	      8.56127362	     -0.45429926	      1.03913201	      0.33451570	      0.65906921	      9.78115875	     -2.65440614	    -10.65763608	      4.07305032	    -14.74108513	      4.79741822	     17.04300517	     -6.01575776	     -0.49949132	    -63.56545021	      1.36189745	     -6.12393541	     -0.72011630	     -5.00525302	      0.92791943	     -2.30999108
      0.92883333	      3.17465969	     -3.27675662	      8.41054240	     -0.44954256	      1.03967561	      0.33481073	      0.15708217	      9.65242268	     -2.48144887	    -10.38264551	      4.16764413	    -14.65681926	      4.77795792	     17.36120149	     -5.81556585	     -0.66443228	    -62.81628854	      1.78619964	     -6.32400821	     -0.75752608	     -5.12847656	      0.71211349	     -2.10272991
      0.93300000	      3.18339515	     -3.08991441	      8.23779273	     -0.44481927	      1.04016402	      0.33511752	     -0.29807460	      9.50071561	     -2.30386543	    -10.15200379	      4.26900806	    -14.57714638	      4.76474678	     17.68214522	     -5.59571330	     -0.83941210	    -62.00681018	      2.20083094	     -6.49407710	     -0.77873541	     -5.24521816	      0.49531791	     -1.96097309
      0.93716667	      3.23743599	     -2.92314393	      8.07710107	     -0.44007388	      1.04067658	      0.33541818	     -0.82065181	      9.37679582	     -2.12620873	     -9.87157114	      4.37137777	    -14.47538201	      4.74080387	     17.94208308	     -5.40892685	     -1.00759978	    -61.14821429	      2.57654656	     -6.64746227	     -0.81358610	     -5.38801882	      0.29551931	     -1.72534565
      0.94133333	      3.25458723	     -2.74974615	      7.89749099	     -0.43533696	      1.04111027	      0.33573006	     -1.28806626	      9.23437149	     -1.94473495	     -9.62559886	      4.47645302	    -14.37980506	      4.71491766	     18.21814549	     -5.20849842	     -1.18508174	    -60.23270610	      2.94187891	     -6.78082945	     -0.84671231	     -5.49638588	      0.08614559	     -1.52546294
      0.94550000	      3.26939450	     -2.58474585	      7.71355591	     -0.43061024	      1.04150176	      0.33603550	     -1.74646304	      9.09642363	     -1.76207514	     -9.38807900	      4.58597272	    -14.27852113	      4.68728230	     18.48073252	     -5.01713131	     -1.36126358	    -59.26758076	      3.29346438	     -6.88487302	     -0.87747156	     -5.60171241	     -0.11057838	     -1.33251094
      0.94966667	      3.27560652	     -2.41877296	      7.52560127	     -0.42587466	      1.04184957	      0.33634581	     -2.19165497	      8.95252711	     -1.58579245	     -9.15959655	      4.70215455	    -14.17000084	      4.65874038	     18.73085437	     -4.82273095	     -1.53498296	    -58.24566104	      3.61876724	     -6.97333641	     -0.90703710	     -5.69379324	     -0.31118464	     -1.13851090
      0.95383333	      3.29089198	     -2.25393954	      7.33185015	     -0.42113627	      1.04218706	      0.33664575	     -2.64528014	      8.80623070	     -1.40879781	     -8.93145637	      4.82034534	    -14.05452314	      4.62914520	     18.94786445	     -4.63114025	     -1.71220240	    -57.16575936	      3.92575066	     -7.04430808	     -0.93489778	     -5.79478721	     -0.51114432	     -0.94637317
      0.95800000	      3.28272600	     -2.09584537	      7.13101013	     -0.41641527	      1.04244757	      0.33694502	     -3.05844114	      8.65939328	     -1.23079732	     -8.73035504	      4.93447942	    -13.94621549	      4.60654115	     19.17389085	     -4.44193669	     -1.88420544	    -56.03834544	      4.22286740	     -7.09045039	     -0.95420520	     -5.88264782	     -0.70738009	     -0.79568186
      0.96216667	      3.30986269	     -1.94861164	      6.94371947	     -0.41165825	      1.04272321	      0.33721044	     -3.52652129	      8.52659829	     -1.06408040	     -8.49091913	      5.06431682	    -13.80622499	      4.57009691	     19.34175717	     -4.26608597	     -2.04327188	    -54.85586677	      4.47721205	     -7.13672120	     -0.98543088	     -5.97896769	     -0.88024818	     -0.55792497
      0.96633333	      3.30032699	     -1.80655422	      6.74628564	     -0.40690615	      1.04290824	      0.33747333	     -3.93902186	      8.38945291	     -0.89621258	     -8.28226069	      5.19549151	    -13.68098023	      4.53377866	     19.52897777	     -4.08972015	     -2.20077010	    -53.62105380	      4.71297764	     -7.16330260	     -1.01566234	     -6.03962556	     -1.05312831	     -0.37049044
